<?xml version="1.0" encoding="UTF-8"?>
<svg id="_Слой_1" data-name=" Слой 1" xmlns="http://www.w3.org/2000/svg" viewBox="0 0 52.56 52.56">
  <defs>
    <style>
      .cls-1 {
        fill: none;
        stroke: #0f1923;
        stroke-miterlimit: 10;
      }

      .cls-2 {
        fill: #0f1923;
        stroke-width: 0px;
      }
    </style>
  </defs>
  <rect class="cls-1" x=".57" y=".52" width="51.48" height="51.48"/>
  <g>
    <path class="cls-2" d="m16.93,26.26l6.85-6.62.64,1.93c.18.55-.28,4.41-.28,4.41,0,0-.69-1.56-.87-1.7s-.83,4.46-.97,4.74-1.61,1.1-1.61,1.1l-3.77-3.86Z"/>
    <path class="cls-2" d="m21.76,31.18l4.6,4.46,4.32-4.18s-2.02-1.84-2.44-1.98-2.44-1.24-2.9-1.33-3.59,3.04-3.59,3.04Z"/>
    <path class="cls-2" d="m33.44,23.96s2.25,2.02,2.25,2.16-2.94,3.13-2.94,3.13c0,0-6.16-1.88-6.53-1.84s4.46-.81,4.46-.81l2.76-2.64Z"/>
    <polygon class="cls-2" points="25.02 26.21 26.68 21.66 25.02 18.44 26.45 16.88 31.69 22.12 29.39 25.38 25.02 26.21"/>
  </g>
</svg>