<?xml version="1.0" encoding="UTF-8"?>
<svg id="_Слой_1" data-name=" Слой 1" xmlns="http://www.w3.org/2000/svg" viewBox="0 0 52.6 52.6">
  <defs>
    <style>
      .cls-1 {
        fill: none;
        stroke: #f9f9f9;
        stroke-miterlimit: 10;
      }

      .cls-2 {
        fill: #f9f9f9;
        stroke-width: 0px;
      }
    </style>
  </defs>
  <rect class="cls-1" x=".6" y=".5" width="51.5" height="51.5"/>
  <g>
    <path class="cls-2" d="m16.9,26.3l6.9-6.6s.5,1.4.6,1.9c.2.6-.3,4.4-.3,4.4,0,0-.7-1.6-.9-1.7s-.8,4.5-1,4.7c-.1.3-1.6,1.1-1.6,1.1l-3.7-3.8Z"/>
    <path class="cls-2" d="m21.8,31.2l4.6,4.5,4.3-4.2s-2-1.8-2.4-2c-.4-.1-2.4-1.2-2.9-1.3-.5-.1-3.6,3-3.6,3Z"/>
    <path class="cls-2" d="m33.4,24s2.3,2,2.3,2.2-2.9,3.1-2.9,3.1c0,0-6.2-1.9-6.5-1.8-.4,0,4.5-.8,4.5-.8l2.6-2.7Z"/>
    <polygon class="cls-2" points="25 26.2 26.7 21.7 25 18.4 26.4 16.9 31.7 22.1 29.4 25.4 25 26.2"/>
  </g>
</svg>