<?xml version="1.0" encoding="UTF-8"?>
<svg id="_Слой_1" data-name=" Слой 1" xmlns="http://www.w3.org/2000/svg" viewBox="0 0 80.33 15.32">
  <defs>
    <style>
      .cls-1 {
        fill: #f9f9f9;
      }

      .cls-1, .cls-2, .cls-3 {
        stroke-width: 0px;
      }

      .cls-2 {
        fill: #0f1923;
      }

      .cls-3 {
        fill: #ff4655;
      }
    </style>
  </defs>
  <path class="cls-1" d="m16.5,15.32h-4.41l-1.02-2.92h-5.72l-1.01,2.92H0L5.8,0h4.9l5.8,15.32Zm-9.86-6.63h3.14l-1.56-4.53-1.58,4.53Z"/>
  <path class="cls-1" d="m32.4,15.32h-4.9l-2.56-8.96-2.56,8.96h-4.9L13.1,0h4.28l2.61,10.27L22.75,0h4.43l2.76,10.28,2.62-10.28h4.22l-4.38,15.32Z"/>
  <path class="cls-1" d="m49.88,15.32h-4.41l-1.02-2.92h-5.72l-1.01,2.92h-4.34L39.18,0h4.9l5.8,15.32Zm-9.86-6.63h3.14l-1.56-4.53-1.58,4.53Z"/>
  <path class="cls-1" d="m63.79,5.1c0,2.36-1.37,4.06-3.96,4.6l4.17,5.62h-4.9l-3.69-5.44h-.23v5.44h-4.16V0h6.83c3.89,0,5.94,2.01,5.94,5.1Zm-8.61-1.37v2.72h2.63c1.03,0,1.78-.43,1.78-1.36s-.75-1.37-1.78-1.37h-2.63Z"/>
  <path class="cls-1" d="m80.33,7.66c0,4.62-3.15,7.66-7.94,7.66h-6.76V0h6.76c4.79,0,7.94,3.04,7.94,7.66Zm-10.55-3.84v7.68h2.49c2.52,0,3.73-1.63,3.73-3.84s-1.21-3.84-3.73-3.84h-2.49Z"/>
  <polygon class="cls-1" points="44.08 0 51.02 0 51.02 15.32 49.88 15.32 44.08 0"/>
  <g>
    <g>
      <g>
        <g>
          <rect class="cls-3" x="48.91" y="0" width=".21" height="8.38"/>
          <polygon class="cls-3" points="48.99 0 48.99 8.38 51.6 8.38 52.87 0 48.99 0"/>
        </g>
        <path class="cls-3" d="m52.7,1.15h-.51l-.17,1.53-.13,1.34-.26,2.2.26-.05h.04l1.58-.38.38-.1,1.28-4.5s-1.62-.04-2.48-.05Zm.81,3.97l-.04.14h-1.28l.34-2.63.09-.57h1.71l-.81,3.06Z"/>
      </g>
      <polygon class="cls-3" points="50.66 8.28 50.62 8.38 49.8 10.82 48.91 10.82 48.91 8.28 50.66 8.28"/>
      <rect class="cls-3" x="48.91" y="10.82" width=".85" height="4.5"/>
      <rect class="cls-3" x="48.91" y="14.69" width="2.56" height=".62"/>
    </g>
    <g>
      <g>
        <g>
          <rect class="cls-3" x="48.7" y="0" width=".21" height="8.38"/>
          <polygon class="cls-3" points="44.94 0 46.22 8.38 48.82 8.38 48.82 0 44.94 0"/>
        </g>
        <path class="cls-3" d="m42.64,1.2l1.28,4.5.38.1,1.58.38h.04l.26.05-.26-2.2-.13-1.34-.17-1.53h-.51c-.85,0-2.48.01-2.48.05Zm.85.86h1.71l.09.57.34,2.63h-1.28l-.04-.14-.81-3.06Z"/>
      </g>
      <polygon class="cls-3" points="47.16 8.28 47.19 8.38 48.01 10.82 48.91 10.82 48.91 8.28 47.16 8.28"/>
      <rect class="cls-3" x="48.06" y="10.82" width=".85" height="4.5"/>
      <rect class="cls-3" x="46.35" y="14.69" width="2.56" height=".62"/>
    </g>
  </g>
  <polygon class="cls-2" points="47.19 8.38 48.91 8.38 48.03 9.01 48.91 10.82 48.41 10.82 48.48 14.69 48.48 14.88 46.35 14.69 48.06 14.69 48.06 10.82 48.01 10.82 47.19 8.38"/>
  <polygon class="cls-2" points="50.62 8.38 47.19 8.38 50.56 8.57 50.62 8.38"/>
  <polygon class="cls-2" points="45.63 5.27 45.71 5.57 44.28 5.36 43.49 2.06 44.35 5.27 45.63 5.27"/>
  <polygon class="cls-2" points="52.62 2.06 51.89 5.27 52.19 5.27 52.62 2.06"/>
</svg>