<svg id="_Слой_1" data-name=" Слой 1" xmlns="http://www.w3.org/2000/svg" viewBox="0 0 59.49 60.17">
  <defs>
    <style>
      .cls-1 {
        fill: none;
        stroke: #f9f9f9;
        stroke-miterlimit: 10;
        stroke-width: 4.17px;
      }

      .cls-2 {
        fill: #0f1923;
      }

      .cls-2, .cls-3 {
        stroke-width: 0px;
      }

      .cls-3 {
        fill: #ff4655;
      }
    </style>
  </defs>
  <g>
    <g>
      <g>
        <g>
          <g>
            <rect class="cls-3" x="29.78" y="11.9" width=".52" height="21.72"/>
            <polygon class="cls-3" points="30.04 11.9 30.04 33.62 36.76 33.62 40.12 11.9 30.04 11.9"/>
          </g>
          <path class="cls-3" d="m39.6,14.75h-1.29l-.52,4.14-.26,3.36-.78,5.69h.78l4.14-1.03,1.03-.26,3.36-11.64s-4.14,0-6.46-.26Zm2.07,10.34v.26h-3.36l.78-6.72.26-1.55h4.4l-2.07,8.02h0Z"/>
        </g>
        <polygon class="cls-3" points="34.43 33.36 34.17 33.62 32.1 39.83 29.78 39.83 29.78 33.36 34.43 33.36"/>
        <rect class="cls-3" x="29.78" y="39.83" width="2.33" height="11.64"/>
        <rect class="cls-3" x="29.78" y="49.91" width="6.72" height="1.55"/>
      </g>
      <g>
        <g>
          <g>
            <rect class="cls-3" x="29.26" y="11.9" width=".52" height="21.72"/>
            <polygon class="cls-3" points="19.43 11.9 22.8 33.62 29.52 33.62 29.52 11.9 19.43 11.9"/>
          </g>
          <path class="cls-3" d="m13.49,15l3.36,11.64,1.03.26,4.14,1.03h.78l-.78-5.69-.26-3.36-.52-3.88h-7.76.01Zm2.33,2.33h4.4l.26,1.55.78,6.72h-3.36v-.26l-2.07-8.02h-.01Z"/>
        </g>
        <polygon class="cls-3" points="25.38 33.36 25.38 33.62 27.45 39.83 29.78 39.83 29.78 33.36 25.38 33.36"/>
        <rect class="cls-3" x="27.71" y="39.83" width="2.33" height="11.64"/>
        <rect class="cls-3" x="23.31" y="49.91" width="6.72" height="1.55"/>
      </g>
    </g>
    <polygon class="cls-2" points="25.38 33.62 29.78 33.62 27.45 35.17 29.78 39.83 28.48 39.83 28.74 49.91 28.74 50.43 23.31 49.91 27.71 49.91 27.71 39.83 27.45 39.83 25.38 33.62"/>
    <polygon class="cls-2" points="34.17 33.62 25.38 33.62 34.17 34.14 34.17 33.62"/>
    <polygon class="cls-2" points="21.24 25.61 21.5 26.38 17.88 25.87 15.81 17.33 17.88 25.61 21.24 25.61"/>
    <polygon class="cls-2" points="39.34 17.33 37.53 25.61 38.31 25.61 39.34 17.33"/>
  </g>
  <circle class="cls-1" cx="29.78" cy="29.68" r="27.36"/>
</svg>